G04 Layer_Color=16711935*
%FSLAX43Y43*%
%MOMM*%
G71*
G01*
G75*
G04:AMPARAMS|DCode=48|XSize=1.413mm|YSize=1.663mm|CornerRadius=0.253mm|HoleSize=0mm|Usage=FLASHONLY|Rotation=180.000|XOffset=0mm|YOffset=0mm|HoleType=Round|Shape=RoundedRectangle|*
%AMROUNDEDRECTD48*
21,1,1.413,1.157,0,0,180.0*
21,1,0.907,1.663,0,0,180.0*
1,1,0.506,-0.454,0.579*
1,1,0.506,0.454,0.579*
1,1,0.506,0.454,-0.579*
1,1,0.506,-0.454,-0.579*
%
%ADD48ROUNDEDRECTD48*%
G04:AMPARAMS|DCode=49|XSize=1.733mm|YSize=1.223mm|CornerRadius=0.229mm|HoleSize=0mm|Usage=FLASHONLY|Rotation=90.000|XOffset=0mm|YOffset=0mm|HoleType=Round|Shape=RoundedRectangle|*
%AMROUNDEDRECTD49*
21,1,1.733,0.765,0,0,90.0*
21,1,1.275,1.223,0,0,90.0*
1,1,0.458,0.383,0.637*
1,1,0.458,0.383,-0.637*
1,1,0.458,-0.383,-0.637*
1,1,0.458,-0.383,0.637*
%
%ADD49ROUNDEDRECTD49*%
G04:AMPARAMS|DCode=55|XSize=1.733mm|YSize=1.223mm|CornerRadius=0.229mm|HoleSize=0mm|Usage=FLASHONLY|Rotation=180.000|XOffset=0mm|YOffset=0mm|HoleType=Round|Shape=RoundedRectangle|*
%AMROUNDEDRECTD55*
21,1,1.733,0.765,0,0,180.0*
21,1,1.275,1.223,0,0,180.0*
1,1,0.458,-0.637,0.383*
1,1,0.458,0.637,0.383*
1,1,0.458,0.637,-0.383*
1,1,0.458,-0.637,-0.383*
%
%ADD55ROUNDEDRECTD55*%
G04:AMPARAMS|DCode=57|XSize=1.483mm|YSize=2.073mm|CornerRadius=0.262mm|HoleSize=0mm|Usage=FLASHONLY|Rotation=180.000|XOffset=0mm|YOffset=0mm|HoleType=Round|Shape=RoundedRectangle|*
%AMROUNDEDRECTD57*
21,1,1.483,1.550,0,0,180.0*
21,1,0.960,2.073,0,0,180.0*
1,1,0.523,-0.480,0.775*
1,1,0.523,0.480,0.775*
1,1,0.523,0.480,-0.775*
1,1,0.523,-0.480,-0.775*
%
%ADD57ROUNDEDRECTD57*%
%ADD60R,1.903X1.903*%
%ADD61C,1.903*%
%ADD62R,1.903X1.903*%
%ADD63C,2.103*%
%ADD64C,2.903*%
%ADD65R,2.403X2.403*%
%ADD66C,0.203*%
%ADD68R,0.503X1.803*%
G04:AMPARAMS|DCode=69|XSize=1.253mm|YSize=1.273mm|CornerRadius=0.233mm|HoleSize=0mm|Usage=FLASHONLY|Rotation=180.000|XOffset=0mm|YOffset=0mm|HoleType=Round|Shape=RoundedRectangle|*
%AMROUNDEDRECTD69*
21,1,1.253,0.808,0,0,180.0*
21,1,0.787,1.273,0,0,180.0*
1,1,0.466,-0.394,0.404*
1,1,0.466,0.394,0.404*
1,1,0.466,0.394,-0.404*
1,1,0.466,-0.394,-0.404*
%
%ADD69ROUNDEDRECTD69*%
G04:AMPARAMS|DCode=70|XSize=0.883mm|YSize=2.373mm|CornerRadius=0.187mm|HoleSize=0mm|Usage=FLASHONLY|Rotation=90.000|XOffset=0mm|YOffset=0mm|HoleType=Round|Shape=RoundedRectangle|*
%AMROUNDEDRECTD70*
21,1,0.883,2.000,0,0,90.0*
21,1,0.510,2.373,0,0,90.0*
1,1,0.373,1.000,0.255*
1,1,0.373,1.000,-0.255*
1,1,0.373,-1.000,-0.255*
1,1,0.373,-1.000,0.255*
%
%ADD70ROUNDEDRECTD70*%
G04:AMPARAMS|DCode=71|XSize=1.253mm|YSize=1.273mm|CornerRadius=0.233mm|HoleSize=0mm|Usage=FLASHONLY|Rotation=270.000|XOffset=0mm|YOffset=0mm|HoleType=Round|Shape=RoundedRectangle|*
%AMROUNDEDRECTD71*
21,1,1.253,0.808,0,0,270.0*
21,1,0.787,1.273,0,0,270.0*
1,1,0.466,-0.404,-0.394*
1,1,0.466,-0.404,0.394*
1,1,0.466,0.404,0.394*
1,1,0.466,0.404,-0.394*
%
%ADD71ROUNDEDRECTD71*%
G04:AMPARAMS|DCode=72|XSize=6.807mm|YSize=7.518mm|CornerRadius=0.927mm|HoleSize=0mm|Usage=FLASHONLY|Rotation=0.000|XOffset=0mm|YOffset=0mm|HoleType=Round|Shape=RoundedRectangle|*
%AMROUNDEDRECTD72*
21,1,6.807,5.664,0,0,0.0*
21,1,4.953,7.518,0,0,0.0*
1,1,1.854,2.477,-2.832*
1,1,1.854,-2.477,-2.832*
1,1,1.854,-2.477,2.832*
1,1,1.854,2.477,2.832*
%
%ADD72ROUNDEDRECTD72*%
G04:AMPARAMS|DCode=73|XSize=1.143mm|YSize=1.524mm|CornerRadius=0.219mm|HoleSize=0mm|Usage=FLASHONLY|Rotation=0.000|XOffset=0mm|YOffset=0mm|HoleType=Round|Shape=RoundedRectangle|*
%AMROUNDEDRECTD73*
21,1,1.143,1.086,0,0,0.0*
21,1,0.705,1.524,0,0,0.0*
1,1,0.438,0.352,-0.543*
1,1,0.438,-0.352,-0.543*
1,1,0.438,-0.352,0.543*
1,1,0.438,0.352,0.543*
%
%ADD73ROUNDEDRECTD73*%
G04:AMPARAMS|DCode=74|XSize=1.073mm|YSize=1.403mm|CornerRadius=0.319mm|HoleSize=0mm|Usage=FLASHONLY|Rotation=0.000|XOffset=0mm|YOffset=0mm|HoleType=Round|Shape=RoundedRectangle|*
%AMROUNDEDRECTD74*
21,1,1.073,0.765,0,0,0.0*
21,1,0.435,1.403,0,0,0.0*
1,1,0.638,0.218,-0.383*
1,1,0.638,-0.218,-0.383*
1,1,0.638,-0.218,0.383*
1,1,0.638,0.218,0.383*
%
%ADD74ROUNDEDRECTD74*%
D48*
X25782Y19479D02*
D03*
X27472Y19479D02*
D03*
X27604Y8000D02*
D03*
X25914Y8000D02*
D03*
X29650Y5500D02*
D03*
X31340Y5500D02*
D03*
X27604Y5500D02*
D03*
X25914Y5500D02*
D03*
D49*
X20108Y22025D02*
D03*
X18093Y22025D02*
D03*
X47914Y22024D02*
D03*
X45899Y22024D02*
D03*
X23912Y5525D02*
D03*
X21898Y5525D02*
D03*
X33318Y5500D02*
D03*
X35333Y5500D02*
D03*
D55*
X20055Y14278D02*
D03*
Y16293D02*
D03*
X36356Y15937D02*
D03*
Y17952D02*
D03*
X33851Y17877D02*
D03*
Y15862D02*
D03*
X22509Y16308D02*
D03*
Y14292D02*
D03*
X23051Y34644D02*
D03*
X23051Y36659D02*
D03*
X11919Y19041D02*
D03*
Y21056D02*
D03*
X40219Y20790D02*
D03*
X40219Y22805D02*
D03*
D57*
X42232Y35103D02*
D03*
X39232Y35103D02*
D03*
X15472Y35126D02*
D03*
X18472Y35126D02*
D03*
X19928Y19500D02*
D03*
X16928D02*
D03*
X47734Y19498D02*
D03*
X44734Y19498D02*
D03*
D60*
X53776Y18331D02*
D03*
X2833Y18320D02*
D03*
D61*
X53776Y15791D02*
D03*
Y13251D02*
D03*
Y10711D02*
D03*
X2833Y15780D02*
D03*
Y13240D02*
D03*
Y10700D02*
D03*
X44133Y3051D02*
D03*
X46673D02*
D03*
X12516Y3101D02*
D03*
X9976D02*
D03*
X40575Y10756D02*
D03*
X43115Y10756D02*
D03*
X43115Y13296D02*
D03*
X40575Y13296D02*
D03*
X38035Y13296D02*
D03*
D62*
X41593Y3051D02*
D03*
X15056Y3101D02*
D03*
X38035Y10756D02*
D03*
D63*
X14995Y45575D02*
D03*
X18495D02*
D03*
X43270D02*
D03*
X46770D02*
D03*
D64*
X35750Y52025D02*
D03*
X25750Y52025D02*
D03*
X20750Y52025D02*
D03*
X30750Y52025D02*
D03*
X40750D02*
D03*
D65*
X15750D02*
D03*
D66*
X3262Y53275D02*
D03*
X53262Y53275D02*
D03*
X53262Y3275D02*
D03*
X3263Y3275D02*
D03*
D68*
X31550Y2775D02*
D03*
X30600Y2775D02*
D03*
X29650Y2775D02*
D03*
D69*
X29735Y8000D02*
D03*
X31255Y8000D02*
D03*
D70*
X30642Y17180D02*
D03*
Y15910D02*
D03*
Y14640D02*
D03*
Y13370D02*
D03*
X25782Y17180D02*
D03*
Y15910D02*
D03*
Y14640D02*
D03*
Y13370D02*
D03*
D71*
X32351Y24215D02*
D03*
Y22695D02*
D03*
D72*
X28212Y33108D02*
D03*
D73*
X30473Y39559D02*
D03*
X25952D02*
D03*
D74*
X22950Y39359D02*
D03*
Y42459D02*
D03*
M02*
