M48
;Layer_Color=9474304
;FILE_FORMAT=4:3
METRIC,LZ
;TYPE=PLATED
T1F00S00C0.300
T2F00S00C0.500
T3F00S00C0.850
T4F00S00C0.900
T5F00S00C1.600
;TYPE=NON_PLATED
T6F00S00C2.700
%
T01
X0049Y00058
X0048341Y0006987
X0051025Y000645
X00459Y0009375
X00399Y00081
X003835Y00065
X0036Y00042
X00354Y00021
X0036963Y000125
X0031202Y0001625
X0029925Y000155
X0028612Y0001525
X0027Y00015
X00278Y00042
X00293Y000416
X00299Y0006787
X0030212Y00093
X00278Y0009375
X0027Y00124
X00294Y0012475
X0033511Y00129
Y00112
X0024061Y0013725
X00204Y00116
X00207Y0008874
X0022256Y0009717
X0022256Y0007317
X0020725Y0005325
X00223Y00028
X0013582Y0008125
X0014226Y0008874
X0015189Y00101
Y0011033
X0014143Y0011131
X0013478Y0011994
X0013093Y0010007
X0012409Y0009303
X001575Y0013296
X00173Y00131
X0017775Y00168
X00169Y0017825
X0018939
X00169Y0022275
X0011919
X0011141Y0017716
X00274Y00172
X00391Y00201
X0041565Y00224
X0044706Y0022182
X0044734Y0017852
X00446Y00162
X00468
T02
X0012683Y0027026
X0012698Y0028076
X0012712Y0029126
X0012726Y0030177
X0013843
X0013829Y0029126
X0013814Y0028076
X00138Y0027026
X0014917
X0014931Y0028076
X0014945Y0029126
X001496Y0030177
X0016076
X0016062Y0029126
X0016048Y0028076
X0016033Y0027026
X001715
X0017164Y0028076
X0018281
X0018267Y0027026
X0019383
X0019398Y0028076
X0026563Y002835
X0027703
X0028843
X0029983
X0031123
X0032263
X0032248Y0027175
X0031108
X0029968
X0028828
X0027688
X0026548
X003753Y0027024
X0038553
X0039577
Y0028079
X0038553
X003753
X004065
Y0027024
X0041723
X0042747
Y0028079
X0041723
Y0029133
X0042747
Y0030188
X0041723
X004382
Y0029133
Y0028079
Y0027024
X0044893
Y0028079
Y0029133
Y0030188
Y0031243
Y0032298
X0043837
X004278
X0041723
Y0031243
X0042747
X004382
X0046141Y0040849
X0047241
X003935
X003825
X0031935Y00407
Y00418
X0031974Y004299
X00307
X0029626
X0028551
X0027477
X0027438Y00418
X0028512
X0029587
X0030661
X0028612Y00407
X0027538
X0027524Y00396
X0028599
X0031922
X0018941Y004085
X0017841
X001105
X000995
X0012755Y0032277
X0012741Y0031227
X0013857
X0013872Y0032277
X0014988
X0014974Y0031227
X0016091
X0016105Y0032277
T03
X0014995Y0045575
X0018495
X004327
X004677
T04
X0053776Y0010711
Y0013251
Y0015791
Y0018331
X0043115Y0013296
X0040575Y0013296
X0040575Y0010756
X0043115Y0010756
X0038035Y0010756
X0038035Y0013296
X0041593Y0003051
X0044133
X0046673
X0015056Y0003101
X0012516
X0009976
X0002833Y00107
Y001324
Y001578
Y001832
T05
X001575Y0052025
X002075Y0052025
X002575Y0052025
X003075
X003575Y0052025
X004075Y0052025
T06
X0053262Y0003275
X0003263Y0003275
X0003262Y0053275
X0053262Y0053275
M30
